<svg width="current" height="current" className="SvgIcon_SvgIcon__root__svg__DKYBi FirstWantedPlusSubscribe_FirstWantedPlusSubscribe__Logo__Svg__Z_5_c" viewBox="0 0 87 16"><defs><path id="5tg7gkfnca" d="M0 .052h16.104V9.87H0z"></path><path id="los3c061sc" d="M.047.02h10.097v14.366H.047z"></path><path id="62sx6eneve" d="M.056.006h10.097v10.297H.056z"></path><path id="46ej2hffpg" d="M1.62 14.462h81.73V.097H1.62z"></path></defs><g fill="none" fill-rule="evenodd"><path fill="currentColor" d="M41.88 1.115l-2.6 1.086v2.2h-1.81v2.355h1.777v4.57c0 1.895 1.197 3.134 3.113 3.134.778 0 1.257-.14 1.496-.24v-2.296c-.14.04-.499.08-.818.08-.758 0-1.157-.28-1.157-1.138v-4.11h1.975V4.4h-1.975V1.115z"></path><g transform="translate(0 4.354)"><mask id="jg5yrw0xob" fill="#fff"><use xlink:href="#5tg7gkfnca"></use></mask><path fill="currentColor" d="M13.31.052l-1.816 6.306L9.359.052H6.745L4.61 6.358 2.794.052H0L3.133 9.87h2.809l2.11-6.616 2.12 6.616h2.799L16.104.052z" mask="url(#jg5yrw0xob)"></path></g><g transform="translate(55.112 .077)"><mask id="1jk1tvly0d" fill="#fff"><use xlink:href="#los3c061sc"></use></mask><path fill="currentColor" d="M5.108 12.007c-1.424 0-2.586-1.038-2.586-2.794s1.203-2.754 2.586-2.754c1.384 0 2.462.978 2.462 2.734 0 1.776-1.078 2.814-2.462 2.814zM7.53 1.038v3.856a4.582 4.582 0 00-2.265-.786c-.049-.004-.098-.009-.148-.012l-.068-.004a4.011 4.011 0 00-.655.016C2.081 4.293.534 5.955.144 8.133c-.057.32-.088.653-.094.992l-.003.099v.014c0 .085.003.169.006.252v.008c.006.143.017.286.032.426.272 2.519 2.039 4.462 4.745 4.462 1.082 0 2.014-.312 2.76-.846v.602h.1l2.454.023V.02L7.53 1.038z" mask="url(#1jk1tvly0d)"></path></g><path fill="currentColor" d="M47.297 8.17c.334-.965 1.12-1.64 2.21-1.64 1.093 0 1.878.675 2.212 1.64h-4.422zm6.894.028c-.417-2.306-2.134-4.031-4.683-4.031-2.55 0-4.266 1.725-4.683 4.03l-.002.013a6.237 6.237 0 00-.097 1.104v.001c0 .233.013.461.037.685v.001c.272 2.518 2.04 4.461 4.745 4.461 2.163 0 3.726-1.243 4.405-3.028l-2.352-.5c-.39.841-1.107 1.4-2.053 1.4-1.264 0-2.118-.997-2.334-2.334h7.079a6.42 6.42 0 00-.06-1.79l-.002-.012z"></path><g transform="translate(16.038 4.16)"><mask id="6qby8fzfkf" fill="#fff"><use xlink:href="#62sx6eneve"></use></mask><path fill="currentColor" d="M5.117 7.926c-1.424 0-2.586-1.037-2.586-2.793 0-1.756 1.202-2.754 2.586-2.754 1.383 0 2.462.978 2.462 2.734 0 1.776-1.079 2.813-2.462 2.813zM7.589.847C6.917.369 6.096.071 5.15.017h-.024L5.058.012a4.011 4.011 0 00-.534.006C2.144.154.55 1.835.154 4.05c-.06.326-.09.663-.096 1.01l-.002.082v.014c0 .084.002.167.006.25v.015c.006.142.017.283.032.421.271 2.518 2.038 4.461 4.744 4.461 1.078 0 2.006-.309 2.75-.839v.595h2.565V.241H7.59v.606z" mask="url(#6qby8fzfkf)"></path></g><path fill="currentColor" d="M33.16 4.141c-1.035 0-2.184.442-2.794 1.415V4.401h-2.614v9.818h2.654V8.57c0-1.137.679-2.035 1.836-2.035 1.277 0 1.816.858 1.816 1.956v5.727h2.654V8.033c0-2.156-1.117-3.892-3.552-3.892"></path><mask id="xuthqg9msh" fill="#fff"><use xlink:href="#46ej2hffpg"></use></mask></g></svg>